<svg width="202.333984" height="49.961426" viewBox="0 0 202.334 49.9614" fill="none" xmlns="http://www.w3.org/2000/svg" xmlns:xlink="http://www.w3.org/1999/xlink">
	<desc>
			Created with Pixso.
	</desc>
	<defs/>
	<path id="Vector" d="M0 11.4L21.96 0L44.17 11.4L21.96 22.83L0 11.4ZM131.87 16.94L131.87 16.66C131.87 12.91 134.08 11.71 137.8 11.97L137.8 5.11C128.89 4.57 124.67 9.03 124.67 16.66L124.67 16.94L120.64 16.94L120.64 23.8L124.67 23.8L124.67 44.58L131.87 44.58L131.87 23.8L140.16 23.8L140.16 44.58L147.37 44.58L147.37 23.8L153.29 23.8L153.29 16.94L147.37 16.94L147.37 16.66C147.37 12.91 149.54 11.71 153.29 11.97L153.29 5.11C144.39 4.57 140.16 9.03 140.16 16.66L140.16 16.94L131.87 16.94ZM81.52 24.45C83.81 22.64 85.2 20.04 85.2 16.7C85.2 10.23 79.93 5.81 73.31 5.81L57.93 5.81L57.93 44.5L74.55 44.5C81.33 44.5 86.75 39.92 86.75 33.3C86.67 29.3 84.66 26.24 81.52 24.45ZM73.35 12.98C75.83 12.98 77.53 14.81 77.53 17.25C77.53 19.69 75.75 21.51 73.35 21.51L65.64 21.51L65.64 12.98L73.35 12.98ZM74.51 37.41L65.64 37.41L65.64 28.29L74.51 28.29C77.15 28.29 79.04 30.23 79.04 32.82C79.04 35.46 77.15 37.41 74.51 37.41ZM109.22 16.9L109.22 31.82C109.22 36.63 106.58 38.68 103.06 38.68C99.8 38.68 97.52 36.75 97.52 32.98L97.52 16.9L90.31 16.9L90.31 33.87C90.31 41.24 94.92 45.32 100.89 45.32C104.65 45.32 107.55 43.91 109.18 41.44L109.18 44.54L116.38 44.54L116.38 16.9L109.22 16.9ZM183.16 33.64L162.09 33.64C163.13 37.29 166.15 38.84 169.91 38.84C172.74 38.84 174.98 37.67 176.19 36.08L182 39.38C179.4 43.14 175.22 45.32 169.83 45.32C160.46 45.32 154.53 38.96 154.53 30.7C154.53 22.44 160.5 16.08 169.29 16.08C177.54 16.08 183.43 22.56 183.43 30.7C183.43 31.78 183.31 32.72 183.16 33.64ZM169.29 22.56C165.42 22.56 162.78 24.61 161.97 28.13L176.22 28.13C175.33 24.15 172.31 22.56 169.29 22.56ZM193.85 21.67L193.85 16.9L186.64 16.9L186.64 44.54L193.85 44.54L193.85 31.32C193.85 25.5 198.57 23.84 202.33 24.3L202.33 16.36C198.81 16.36 195.28 17.91 193.85 21.67ZM21.96 42.39L6.98 34.25L0 38.03L21.96 49.96L44.17 38.03L37.11 34.25L21.96 42.39ZM6.98 21.4L21.96 28.79L37.11 21.4L44.17 24.85L21.96 35.68L0 24.85L6.98 21.4Z" fill="#000000" fill-opacity="1.000000" fill-rule="evenodd"/>
</svg>
