<svg width="39.741669" height="32.812500" viewBox="0 0 39.7417 32.8125" fill="none" xmlns="http://www.w3.org/2000/svg" xmlns:xlink="http://www.w3.org/1999/xlink">
	<desc>
			Created with Pixso.
	</desc>
	<defs/>
	<path id="Vector" d="M5.28 32.81L5.28 13.76L1.25 16.86L0 15.21L19.87 0L39.74 15.21L38.48 16.85L34.45 13.76L34.45 32.81L5.28 32.81ZM11.53 21.91C11.1 21.91 10.73 21.75 10.41 21.43C10.09 21.11 9.93 20.74 9.93 20.31C9.93 19.88 10.09 19.5 10.41 19.18C10.73 18.86 11.1 18.7 11.53 18.7C11.96 18.7 12.34 18.86 12.66 19.18C12.98 19.5 13.14 19.88 13.14 20.31C13.14 20.74 12.98 21.11 12.66 21.43C12.34 21.75 11.96 21.91 11.53 21.91ZM19.87 21.91C19.44 21.91 19.06 21.75 18.74 21.43C18.42 21.11 18.26 20.74 18.26 20.31C18.26 19.88 18.42 19.5 18.74 19.18C19.06 18.86 19.44 18.7 19.87 18.7C20.3 18.7 20.67 18.86 20.99 19.18C21.31 19.5 21.47 19.88 21.47 20.31C21.47 20.74 21.31 21.11 20.99 21.43C20.67 21.75 20.3 21.91 19.87 21.91ZM28.2 21.91C27.77 21.91 27.39 21.75 27.07 21.43C26.75 21.11 26.6 20.74 26.6 20.31C26.6 19.88 26.75 19.5 27.07 19.18C27.39 18.86 27.77 18.7 28.2 18.7C28.63 18.7 29 18.86 29.32 19.18C29.64 19.5 29.8 19.88 29.8 20.31C29.8 20.74 29.64 21.11 29.32 21.43C29 21.75 28.63 21.91 28.2 21.91Z" fill="#CDA274" fill-opacity="1.000000" fill-rule="nonzero"/>
</svg>
